<svg id="stacked" xmlns="http://www.w3.org/2000/svg" viewBox="0 0 1078.85 1558.33">
    <title>allstack</title>
    <g id="bari_road_stacked">
        <rect x="352.78" y="1531.01" width="726.07" height="27.32" style="fill: #2d2d2d" />
        <rect x="301" y="1531.01" width="51.78" height="27.32" style="fill: #282641" />
        <rect x="236.27" y="1531.01" width="64.73" height="27.32" style="fill: #5d2b87" />
        <rect x="176.72" y="1531.01" width="59.55" height="27.32" style="fill: #b0498c" />
        <rect x="129.03" y="1531.01" width="47.69" height="27.32" style="fill: #e66277" />
        <rect x="71.1" y="1531.01" width="57.93" height="27.32" style="fill: #f67d6f" />
        <rect x="30.32" y="1531.01" width="40.78" height="27.32" style="fill: #febd8b" />
        <rect x="7.23" y="1531.01" width="23.09" height="27.32" style="fill: #fedda6" />
        <rect y="1531.01" width="7.23" height="27.32" style="fill: #fcfdc6" />
    </g>
    <g id="axes">
        <text transform="translate(201.55 1488.33)" style="font-size: 14px;fill: #fff;font-family: Work Sans">20%</text>
        <line x1="216" y1="1558.33" x2="216" y2="1505.72" style="fill: none;stroke: #fff" />
        <text transform="translate(417.36 1488.33)" style="font-size: 14px;fill: #fff;font-family: Work Sans">40%</text>
        <text transform="translate(633.31 1488.33)" style="font-size: 14px;fill: #fff;font-family: Work Sans">60%</text>
        <line x1="864" y1="1558.33" x2="864" y2="1505.72" style="fill: none;stroke: #fff" />
        <line x1="648" y1="1558.33" x2="648" y2="1505.72" style="fill: none;stroke: #fff" />
        <line x1="432" y1="1558.33" x2="432" y2="1505.72" style="fill: none;stroke: #fff" />
        <text transform="translate(849.32 1488.33)" style="font-size: 14px;fill: #fff;font-family: Work Sans">80%</text>
        <text transform="translate(37 1413.33)" style="isolation: isolate;font-size: 23px;fill: #fff;font-family: Work Sans">Percentuale di territorio raggiunto</text>
    </g>

    <g id="bologna_road_stacked">
        <rect x="632.85" y="1531.01" width="446" height="27.32" style="fill: #2d2d2d" />
        <rect x="596.82" y="1531.01" width="36.03" height="27.32" style="fill: #282641" />
        <rect x="545.25" y="1531.01" width="51.57" height="27.32" style="fill: #5d2b87" />
        <rect x="442.98" y="1531.01" width="102.27" height="27.32" style="fill: #b0498c" />
        <rect x="301.43" y="1531.01" width="141.55" height="27.32" style="fill: #e66277" />
        <rect x="165.5" y="1531.01" width="135.94" height="27.32" style="fill: #f67d6f" />
        <rect x="65.05" y="1531.01" width="100.44" height="27.32" style="fill: #febd8b" />
        <rect x="9.6" y="1531.01" width="55.45" height="27.32" style="fill: #fedda6" />
        <rect y="1531.01" width="9.6" height="27.32" style="fill: #fcfdc6" />
    </g>
    <g id="axes">
        <text transform="translate(201.55 1488.33)" style="font-size: 14px;fill: #fff;font-family: Work Sans">20%</text>
        <line x1="216" y1="1558.33" x2="216" y2="1505.72" style="fill: none;stroke: #fff" />
        <text transform="translate(417.36 1488.33)" style="font-size: 14px;fill: #fff;font-family: Work Sans">40%</text>
        <text transform="translate(633.31 1488.33)" style="font-size: 14px;fill: #fff;font-family: Work Sans">60%</text>
        <line x1="864" y1="1558.33" x2="864" y2="1505.72" style="fill: none;stroke: #fff" />
        <line x1="648" y1="1558.33" x2="648" y2="1505.72" style="fill: none;stroke: #fff" />
        <line x1="432" y1="1558.33" x2="432" y2="1505.72" style="fill: none;stroke: #fff" />
        <text transform="translate(849.32 1488.33)" style="font-size: 14px;fill: #fff;font-family: Work Sans">80%</text>
        <text transform="translate(37 1413.33)" style="isolation: isolate;font-size: 23px;fill: #fff;font-family: Work Sans">Percentuale di territorio raggiunto</text>
    </g>
    <g id="cagliari_road_stacked">
        <rect x="31.29" y="1531.01" width="1047.56" height="27.32" style="fill: #2d2d2d" />
        <rect x="31.18" y="1531.01" width="0.11" height="27.32" style="fill: #282641" />
        <rect x="31.07" y="1531.01" width="0.11" height="27.32" style="fill: #5d2b87" />
        <rect x="30.42" y="1531.01" width="0.65" height="27.32" style="fill: #b0498c" />
        <rect x="28.81" y="1531.01" width="1.62" height="27.32" style="fill: #e66277" />
        <rect x="26.97" y="1531.01" width="1.83" height="27.32" style="fill: #f67d6f" />
        <rect x="23.2" y="1531.01" width="3.78" height="27.32" style="fill: #febd8b" />
        <rect x="5.07" y="1531.01" width="18.12" height="27.32" style="fill: #fedda6" />
        <rect y="1531.01" width="5.07" height="27.32" style="fill: #fcfdc6" />
    </g>
    <g id="axes">
        <text transform="translate(201.55 1488.33)" style="font-size: 14px;fill: #fff;font-family: Work Sans">20%</text>
        <line x1="216" y1="1558.33" x2="216" y2="1505.72" style="fill: none;stroke: #fff" />
        <text transform="translate(417.36 1488.33)" style="font-size: 14px;fill: #fff;font-family: Work Sans">40%</text>
        <text transform="translate(633.31 1488.33)" style="font-size: 14px;fill: #fff;font-family: Work Sans">60%</text>
        <line x1="864" y1="1558.33" x2="864" y2="1505.72" style="fill: none;stroke: #fff" />
        <line x1="648" y1="1558.33" x2="648" y2="1505.72" style="fill: none;stroke: #fff" />
        <line x1="432" y1="1558.33" x2="432" y2="1505.72" style="fill: none;stroke: #fff" />
        <text transform="translate(849.32 1488.33)" style="font-size: 14px;fill: #fff;font-family: Work Sans">80%</text>
        <text transform="translate(37 1413.33)" style="isolation: isolate;font-size: 23px;fill: #fff;font-family: Work Sans">Percentuale di territorio raggiunto</text>
    </g>
    <g id="firenze_road_stacked">
        <rect x="636.85" y="1531.01" width="442" height="27.32" style="fill: #2d2d2d" />
        <rect x="600.81" y="1531.01" width="36.03" height="27.32" style="fill: #282641" />
        <rect x="517.2" y="1531.01" width="83.61" height="27.32" style="fill: #5d2b87" />
        <rect x="384.39" y="1531.01" width="132.81" height="27.32" style="fill: #b0498c" />
        <rect x="239.94" y="1531.01" width="144.46" height="27.32" style="fill: #e66277" />
        <rect x="121.37" y="1531.01" width="118.57" height="27.32" style="fill: #f67d6f" />
        <rect x="38.73" y="1531.01" width="82.64" height="27.32" style="fill: #febd8b" />
        <rect x="0.86" y="1531.01" width="37.87" height="27.32" style="fill: #fedda6" />
        <rect y="1531.01" width="0.86" height="27.32" style="fill: #fcfdc6" />
    </g>
    <g id="axes">
        <text transform="translate(201.55 1488.33)" style="font-size: 14px;fill: #fff;font-family: Work Sans">20%</text>
        <line x1="216" y1="1558.33" x2="216" y2="1505.72" style="fill: none;stroke: #fff" />
        <text transform="translate(417.36 1488.33)" style="font-size: 14px;fill: #fff;font-family: Work Sans">40%</text>
        <text transform="translate(633.31 1488.33)" style="font-size: 14px;fill: #fff;font-family: Work Sans">60%</text>
        <line x1="864" y1="1558.33" x2="864" y2="1505.72" style="fill: none;stroke: #fff" />
        <line x1="648" y1="1558.33" x2="648" y2="1505.72" style="fill: none;stroke: #fff" />
        <line x1="432" y1="1558.33" x2="432" y2="1505.72" style="fill: none;stroke: #fff" />
        <text transform="translate(849.32 1488.33)" style="font-size: 14px;fill: #fff;font-family: Work Sans">80%</text>
        <text transform="translate(37 1413.33)" style="isolation: isolate;font-size: 23px;fill: #fff;font-family: Work Sans">Percentuale di territorio raggiunto</text>
    </g>
    <g id="milano_road_stacked">
        <rect x="519.68" y="1531.01" width="559.17" height="27.32" style="fill: #2d2d2d" />
        <rect x="474.48" y="1531.01" width="45.2" height="27.32" style="fill: #282641" />
        <rect x="411.47" y="1531.01" width="63" height="27.32" style="fill: #5d2b87" />
        <rect x="335.95" y="1531.01" width="75.52" height="27.32" style="fill: #b0498c" />
        <rect x="242.96" y="1531.01" width="93" height="27.32" style="fill: #e66277" />
        <rect x="150.61" y="1531.01" width="92.35" height="27.32" style="fill: #f67d6f" />
        <rect x="68.4" y="1531.01" width="82.21" height="27.32" style="fill: #febd8b" />
        <rect x="13.7" y="1531.01" width="54.7" height="27.32" style="fill: #fedda6" />
        <rect y="1531.01" width="13.7" height="27.32" style="fill: #fcfdc6" />
    </g>
    <g id="axes">
        <text transform="translate(201.55 1488.33)" style="font-size: 14px;fill: #fff;font-family: Work Sans">20%</text>
        <line x1="216" y1="1558.33" x2="216" y2="1505.72" style="fill: none;stroke: #fff" />
        <text transform="translate(417.36 1488.33)" style="font-size: 14px;fill: #fff;font-family: Work Sans">40%</text>
        <text transform="translate(633.31 1488.33)" style="font-size: 14px;fill: #fff;font-family: Work Sans">60%</text>
        <line x1="864" y1="1558.33" x2="864" y2="1505.72" style="fill: none;stroke: #fff" />
        <line x1="648" y1="1558.33" x2="648" y2="1505.72" style="fill: none;stroke: #fff" />
        <line x1="432" y1="1558.33" x2="432" y2="1505.72" style="fill: none;stroke: #fff" />
        <text transform="translate(849.32 1488.33)" style="font-size: 14px;fill: #fff;font-family: Work Sans">80%</text>
        <text transform="translate(37 1413.33)" style="isolation: isolate;font-size: 23px;fill: #fff;font-family: Work Sans">Percentuale di territorio raggiunto</text>
    </g>
    <g id="napoli_road_stacked">
        <rect x="450.2" y="1531.01" width="628.65" height="27.32" style="fill: #2d2d2d" />
        <rect x="396.59" y="1531.01" width="53.62" height="27.32" style="fill: #282641" />
        <rect x="318.58" y="1531.01" width="78" height="27.32" style="fill: #5d2b87" />
        <rect x="248.35" y="1531.01" width="70.23" height="27.32" style="fill: #b0498c" />
        <rect x="160.86" y="1531.01" width="87.49" height="27.32" style="fill: #e66277" />
        <rect x="83.83" y="1531.01" width="77.03" height="27.32" style="fill: #f67d6f" />
        <rect x="31.5" y="1531.01" width="52.32" height="27.32" style="fill: #febd8b" />
        <rect x="7.77" y="1531.01" width="23.73" height="27.32" style="fill: #fedda6" />
        <rect y="1531.01" width="7.77" height="27.32" style="fill: #fcfdc6" />
    </g>
    <g id="axes">
        <text transform="translate(201.55 1488.33)" style="font-size: 14px;fill: #fff;font-family: Work Sans">20%</text>
        <line x1="216" y1="1558.33" x2="216" y2="1505.72" style="fill: none;stroke: #fff" />
        <text transform="translate(417.36 1488.33)" style="font-size: 14px;fill: #fff;font-family: Work Sans">40%</text>
        <text transform="translate(633.31 1488.33)" style="font-size: 14px;fill: #fff;font-family: Work Sans">60%</text>
        <line x1="864" y1="1558.33" x2="864" y2="1505.72" style="fill: none;stroke: #fff" />
        <line x1="648" y1="1558.33" x2="648" y2="1505.72" style="fill: none;stroke: #fff" />
        <line x1="432" y1="1558.33" x2="432" y2="1505.72" style="fill: none;stroke: #fff" />
        <text transform="translate(849.32 1488.33)" style="font-size: 14px;fill: #fff;font-family: Work Sans">80%</text>
        <text transform="translate(37 1413.33)" style="isolation: isolate;font-size: 23px;fill: #fff;font-family: Work Sans">Percentuale di territorio raggiunto</text>
    </g>
    <g id="palermo_road_stacked">
        <rect x="105.19" y="1531.01" width="973.66" height="27.32" style="fill: #2d2d2d" />
        <rect x="95.05" y="1531.01" width="10.14" height="27.32" style="fill: #282641" />
        <rect x="89.33" y="1531.01" width="5.72" height="27.32" style="fill: #5d2b87" />
        <rect x="83.93" y="1531.01" width="5.39" height="27.32" style="fill: #b0498c" />
        <rect x="72.61" y="1531.01" width="11.33" height="27.32" style="fill: #e66277" />
        <rect x="44.45" y="1531.01" width="28.16" height="27.32" style="fill: #f67d6f" />
        <rect x="19.53" y="1531.01" width="24.92" height="27.32" style="fill: #febd8b" />
        <rect x="3.67" y="1531.01" width="15.86" height="27.32" style="fill: #fedda6" />
        <rect y="1531.01" width="3.67" height="27.32" style="fill: #fcfdc6" />
    </g>
    <g id="axes">
        <text transform="translate(201.55 1488.33)" style="font-size: 14px;fill: #fff;font-family: Work Sans">20%</text>
        <line x1="216" y1="1558.33" x2="216" y2="1505.72" style="fill: none;stroke: #fff" />
        <text transform="translate(417.36 1488.33)" style="font-size: 14px;fill: #fff;font-family: Work Sans">40%</text>
        <text transform="translate(633.31 1488.33)" style="font-size: 14px;fill: #fff;font-family: Work Sans">60%</text>
        <line x1="864" y1="1558.33" x2="864" y2="1505.72" style="fill: none;stroke: #fff" />
        <line x1="648" y1="1558.33" x2="648" y2="1505.72" style="fill: none;stroke: #fff" />
        <line x1="432" y1="1558.33" x2="432" y2="1505.72" style="fill: none;stroke: #fff" />
        <text transform="translate(849.32 1488.33)" style="font-size: 14px;fill: #fff;font-family: Work Sans">80%</text>
        <text transform="translate(37 1413.33)" style="isolation: isolate;font-size: 23px;fill: #fff;font-family: Work Sans">Percentuale di territorio raggiunto</text>
    </g>
    <g id="pescara_road_stacked">
        <rect x="527.56" y="1531.01" width="551.29" height="27.32" style="fill: #2d2d2d" />
        <rect x="427.76" y="1531.01" width="99.79" height="27.32" style="fill: #282641" />
        <rect x="326.46" y="1531.01" width="101.3" height="27.32" style="fill: #5d2b87" />
        <rect x="238.75" y="1531.01" width="87.71" height="27.32" style="fill: #b0498c" />
        <rect x="152.44" y="1531.01" width="86.31" height="27.32" style="fill: #e66277" />
        <rect x="73.69" y="1531.01" width="78.76" height="27.32" style="fill: #f67d6f" />
        <rect x="27.83" y="1531.01" width="45.85" height="27.32" style="fill: #febd8b" />
        <rect x="4.53" y="1531.01" width="23.3" height="27.32" style="fill: #fedda6" />
        <rect y="1531.01" width="4.53" height="27.32" style="fill: #fcfdc6" />
    </g>
    <g id="axes">
        <text transform="translate(201.55 1488.33)" style="font-size: 14px;fill: #fff;font-family: Work Sans">20%</text>
        <line x1="216" y1="1558.33" x2="216" y2="1505.72" style="fill: none;stroke: #fff" />
        <text transform="translate(417.36 1488.33)" style="font-size: 14px;fill: #fff;font-family: Work Sans">40%</text>
        <text transform="translate(633.31 1488.33)" style="font-size: 14px;fill: #fff;font-family: Work Sans">60%</text>
        <line x1="864" y1="1558.33" x2="864" y2="1505.72" style="fill: none;stroke: #fff" />
        <line x1="648" y1="1558.33" x2="648" y2="1505.72" style="fill: none;stroke: #fff" />
        <line x1="432" y1="1558.33" x2="432" y2="1505.72" style="fill: none;stroke: #fff" />
        <text transform="translate(849.32 1488.33)" style="font-size: 14px;fill: #fff;font-family: Work Sans">80%</text>
        <text transform="translate(37 1413.33)" style="isolation: isolate;font-size: 23px;fill: #fff;font-family: Work Sans">Percentuale di territorio raggiunto</text>
    </g>
    <g id="reggio_road_stacked">
        <rect x="232.92" y="1531.01" width="845.93" height="27.32" style="fill: #2d2d2d" />
        <rect x="174.99" y="1531.01" width="57.93" height="27.32" style="fill: #282641" />
        <rect x="114.25" y="1531.01" width="60.74" height="27.32" style="fill: #5d2b87" />
        <rect x="68.51" y="1531.01" width="45.74" height="27.32" style="fill: #b0498c" />
        <rect x="41.54" y="1531.01" width="26.97" height="27.32" style="fill: #e66277" />
        <rect x="24.38" y="1531.01" width="17.15" height="27.32" style="fill: #f67d6f" />
        <rect x="11.11" y="1531.01" width="13.27" height="27.32" style="fill: #febd8b" />
        <rect x="2.16" y="1531.01" width="8.95" height="27.32" style="fill: #fedda6" />
        <rect y="1531.01" width="2.16" height="27.32" style="fill: #fcfdc6" />
    </g>
    <g id="axes">
        <text transform="translate(201.55 1488.33)" style="font-size: 14px;fill: #fff;font-family: Work Sans">20%</text>
        <line x1="216" y1="1558.33" x2="216" y2="1505.72" style="fill: none;stroke: #fff" />
        <text transform="translate(417.36 1488.33)" style="font-size: 14px;fill: #fff;font-family: Work Sans">40%</text>
        <text transform="translate(633.31 1488.33)" style="font-size: 14px;fill: #fff;font-family: Work Sans">60%</text>
        <line x1="864" y1="1558.33" x2="864" y2="1505.72" style="fill: none;stroke: #fff" />
        <line x1="648" y1="1558.33" x2="648" y2="1505.72" style="fill: none;stroke: #fff" />
        <line x1="432" y1="1558.33" x2="432" y2="1505.72" style="fill: none;stroke: #fff" />
        <text transform="translate(849.32 1488.33)" style="font-size: 14px;fill: #fff;font-family: Work Sans">80%</text>
        <text transform="translate(37 1413.33)" style="isolation: isolate;font-size: 23px;fill: #fff;font-family: Work Sans">Percentuale di territorio raggiunto</text>
    </g>
    <g id="roma_road_stacked">
        <rect x="550.86" y="1531.01" width="527.99" height="27.32" style="fill: #2d2d2d" />
        <rect x="457" y="1531.01" width="93.86" height="27.32" style="fill: #282641" />
        <rect x="364.54" y="1531.01" width="92.46" height="27.32" style="fill: #5d2b87" />
        <rect x="268.74" y="1531.01" width="95.8" height="27.32" style="fill: #b0498c" />
        <rect x="183.51" y="1531.01" width="85.23" height="27.32" style="fill: #e66277" />
        <rect x="105.51" y="1531.01" width="78" height="27.32" style="fill: #f67d6f" />
        <rect x="46.93" y="1531.01" width="58.58" height="27.32" style="fill: #febd8b" />
        <rect x="10.25" y="1531.01" width="36.68" height="27.32" style="fill: #fedda6" />
        <rect y="1531.01" width="10.25" height="27.32" style="fill: #fcfdc6" />
    </g>
    <g id="axes">
        <text transform="translate(201.55 1488.33)" style="font-size: 14px;fill: #fff;font-family: Work Sans">20%</text>
        <line x1="216" y1="1558.33" x2="216" y2="1505.72" style="fill: none;stroke: #fff" />
        <text transform="translate(417.36 1488.33)" style="font-size: 14px;fill: #fff;font-family: Work Sans">40%</text>
        <text transform="translate(633.31 1488.33)" style="font-size: 14px;fill: #fff;font-family: Work Sans">60%</text>
        <line x1="864" y1="1558.33" x2="864" y2="1505.72" style="fill: none;stroke: #fff" />
        <line x1="648" y1="1558.33" x2="648" y2="1505.72" style="fill: none;stroke: #fff" />
        <line x1="432" y1="1558.33" x2="432" y2="1505.72" style="fill: none;stroke: #fff" />
        <text transform="translate(849.32 1488.33)" style="font-size: 14px;fill: #fff;font-family: Work Sans">80%</text>
        <text transform="translate(37 1413.33)" style="isolation: isolate;font-size: 23px;fill: #fff;font-family: Work Sans">Percentuale di territorio raggiunto</text>
    </g>
    <g id="torino_road_stacked">
        <rect x="431.32" y="1531.01" width="647.53" height="27.32" style="fill: #2d2d2d" />
        <rect x="368.97" y="1531.01" width="62.36" height="27.32" style="fill: #282641" />
        <rect x="290.21" y="1531.01" width="78.76" height="27.32" style="fill: #5d2b87" />
        <rect x="204.98" y="1531.01" width="85.23" height="27.32" style="fill: #b0498c" />
        <rect x="144.67" y="1531.01" width="60.31" height="27.32" style="fill: #e66277" />
        <rect x="98.18" y="1531.01" width="46.5" height="27.32" style="fill: #f67d6f" />
        <rect x="47.25" y="1531.01" width="50.92" height="27.32" style="fill: #febd8b" />
        <rect x="8.95" y="1531.01" width="38.3" height="27.32" style="fill: #fedda6" />
        <rect y="1531.01" width="8.95" height="27.32" style="fill: #fcfdc6" />
    </g>
    <g id="axes">
        <text transform="translate(201.55 1488.33)" style="font-size: 14px;fill: #fff;font-family: Work Sans">20%</text>
        <line x1="216" y1="1558.33" x2="216" y2="1505.72" style="fill: none;stroke: #fff" />
        <text transform="translate(417.36 1488.33)" style="font-size: 14px;fill: #fff;font-family: Work Sans">40%</text>
        <text transform="translate(633.31 1488.33)" style="font-size: 14px;fill: #fff;font-family: Work Sans">60%</text>
        <line x1="864" y1="1558.33" x2="864" y2="1505.72" style="fill: none;stroke: #fff" />
        <line x1="648" y1="1558.33" x2="648" y2="1505.72" style="fill: none;stroke: #fff" />
        <line x1="432" y1="1558.33" x2="432" y2="1505.72" style="fill: none;stroke: #fff" />
        <text transform="translate(849.32 1488.33)" style="font-size: 14px;fill: #fff;font-family: Work Sans">80%</text>
        <text transform="translate(37 1413.33)" style="isolation: isolate;font-size: 23px;fill: #fff;font-family: Work Sans">Percentuale di territorio raggiunto</text>
    </g>
    <g id="venezia_road_stacked">
        <rect x="559.17" y="1531.01" width="519.68" height="27.32" style="fill: #2d2d2d" />
        <rect x="500.15" y="1531.01" width="59.01" height="27.32" style="fill: #282641" />
        <rect x="423.88" y="1531.01" width="76.27" height="27.32" style="fill: #5d2b87" />
        <rect x="316.21" y="1531.01" width="107.67" height="27.32" style="fill: #b0498c" />
        <rect x="206.17" y="1531.01" width="110.04" height="27.32" style="fill: #e66277" />
        <rect x="116.95" y="1531.01" width="89.22" height="27.32" style="fill: #f67d6f" />
        <rect x="48.55" y="1531.01" width="68.4" height="27.32" style="fill: #febd8b" />
        <rect x="7.77" y="1531.01" width="40.78" height="27.32" style="fill: #fedda6" />
        <rect y="1531.01" width="7.77" height="27.32" style="fill: #fcfdc6" />
    </g>
    <g id="axes">
        <text transform="translate(201.55 1488.33)" style="font-size: 14px;fill: #fff;font-family: Work Sans">20%</text>
        <line x1="216" y1="1558.33" x2="216" y2="1505.72" style="fill: none;stroke: #fff" />
        <text transform="translate(417.36 1488.33)" style="font-size: 14px;fill: #fff;font-family: Work Sans">40%</text>
        <text transform="translate(633.31 1488.33)" style="font-size: 14px;fill: #fff;font-family: Work Sans">60%</text>
        <line x1="864" y1="1558.33" x2="864" y2="1505.72" style="fill: none;stroke: #fff" />
        <line x1="648" y1="1558.33" x2="648" y2="1505.72" style="fill: none;stroke: #fff" />
        <line x1="432" y1="1558.33" x2="432" y2="1505.72" style="fill: none;stroke: #fff" />
        <text transform="translate(849.32 1488.33)" style="font-size: 14px;fill: #fff;font-family: Work Sans">80%</text>
        <text transform="translate(37 1413.33)" style="isolation: isolate;font-size: 23px;fill: #fff;font-family: Work Sans">Percentuale di territorio raggiunto</text>
    </g>
    <g id="bari_rail_stacked">
        <rect x="83.29" y="1531.01" width="995.56" height="27.32" style="fill: #2d2d2d" />
        <rect x="63.33" y="1531.01" width="19.96" height="27.32" style="fill: #282641" />
        <rect x="47.04" y="1531.01" width="16.29" height="27.32" style="fill: #5d2b87" />
        <rect x="32.04" y="1531.01" width="15" height="27.32" style="fill: #b0498c" />
        <rect x="18.12" y="1531.01" width="13.92" height="27.32" style="fill: #e66277" />
        <rect x="9.06" y="1531.01" width="9.06" height="27.32" style="fill: #f67d6f" />
        <rect x="3.67" y="1531.01" width="5.39" height="27.32" style="fill: #febd8b" />
        <rect x="0.76" y="1531.01" width="2.91" height="27.32" style="fill: #fedda6" />
        <rect y="1531.01" width="0.76" height="27.32" style="fill: #fcfdc6" />
    </g>
    <g id="axes">
        <text transform="translate(201.55 1488.33)" style="font-size: 14px;fill: #fff;font-family: Work Sans">20%</text>
        <line x1="216" y1="1558.33" x2="216" y2="1505.72" style="fill: none;stroke: #fff" />
        <text transform="translate(417.36 1488.33)" style="font-size: 14px;fill: #fff;font-family: Work Sans">40%</text>
        <text transform="translate(633.31 1488.33)" style="font-size: 14px;fill: #fff;font-family: Work Sans">60%</text>
        <line x1="864" y1="1558.33" x2="864" y2="1505.72" style="fill: none;stroke: #fff" />
        <line x1="648" y1="1558.33" x2="648" y2="1505.72" style="fill: none;stroke: #fff" />
        <line x1="432" y1="1558.33" x2="432" y2="1505.72" style="fill: none;stroke: #fff" />
        <text transform="translate(849.32 1488.33)" style="font-size: 14px;fill: #fff;font-family: Work Sans">80%</text>
        <text transform="translate(37 1413.33)" style="isolation: isolate;font-size: 23px;fill: #fff;font-family: Work Sans">Percentuale di territorio raggiunto</text>
    </g>
    <g id="bologna_rail_stacked">
        <rect x="351.06" y="1531.01" width="727.79" height="27.32" style="fill: #2d2d2d" />
        <rect x="279.31" y="1531.01" width="71.74" height="27.32" style="fill: #282641" />
        <rect x="210.59" y="1531.01" width="68.72" height="27.32" style="fill: #5d2b87" />
        <rect x="141.87" y="1531.01" width="68.72" height="27.32" style="fill: #b0498c" />
        <rect x="84.58" y="1531.01" width="57.29" height="27.32" style="fill: #e66277" />
        <rect x="41.1" y="1531.01" width="43.48" height="27.32" style="fill: #f67d6f" />
        <rect x="13.16" y="1531.01" width="27.94" height="27.32" style="fill: #febd8b" />
        <rect x="2.16" y="1531.01" width="11" height="27.32" style="fill: #fedda6" />
        <rect y="1531.01" width="2.16" height="27.32" style="fill: #fcfdc6" />
    </g>
    <g id="axes">
        <text transform="translate(201.55 1488.33)" style="font-size: 14px;fill: #fff;font-family: Work Sans">20%</text>
        <line x1="216" y1="1558.33" x2="216" y2="1505.72" style="fill: none;stroke: #fff" />
        <text transform="translate(417.36 1488.33)" style="font-size: 14px;fill: #fff;font-family: Work Sans">40%</text>
        <text transform="translate(633.31 1488.33)" style="font-size: 14px;fill: #fff;font-family: Work Sans">60%</text>
        <line x1="864" y1="1558.33" x2="864" y2="1505.72" style="fill: none;stroke: #fff" />
        <line x1="648" y1="1558.33" x2="648" y2="1505.72" style="fill: none;stroke: #fff" />
        <line x1="432" y1="1558.33" x2="432" y2="1505.72" style="fill: none;stroke: #fff" />
        <text transform="translate(849.32 1488.33)" style="font-size: 14px;fill: #fff;font-family: Work Sans">80%</text>
        <text transform="translate(37 1413.33)" style="isolation: isolate;font-size: 23px;fill: #fff;font-family: Work Sans">Percentuale di territorio raggiunto</text>
    </g>
    <g id="cagliari_rail_stacked">
        <rect x="22.87" y="1531.01" width="1055.98" height="27.32" style="fill: #2d2d2d" />
        <rect x="19.96" y="1531.01" width="2.91" height="27.32" style="fill: #282641" />
        <rect x="16.51" y="1531.01" width="3.45" height="27.32" style="fill: #5d2b87" />
        <rect x="12.73" y="1531.01" width="3.78" height="27.32" style="fill: #b0498c" />
        <rect x="8.63" y="1531.01" width="4.1" height="27.32" style="fill: #e66277" />
        <rect x="4.85" y="1531.01" width="3.78" height="27.32" style="fill: #f67d6f" />
        <rect x="1.94" y="1531.01" width="2.91" height="27.32" style="fill: #febd8b" />
        <rect x="0.43" y="1531.01" width="1.51" height="27.32" style="fill: #fedda6" />
        <rect y="1531.01" width="0.43" height="27.32" style="fill: #fcfdc6" />
    </g>
    <g id="axes">
        <text transform="translate(201.55 1488.33)" style="font-size: 14px;fill: #fff;font-family: Work Sans">20%</text>
        <line x1="216" y1="1558.33" x2="216" y2="1505.72" style="fill: none;stroke: #fff" />
        <text transform="translate(417.36 1488.33)" style="font-size: 14px;fill: #fff;font-family: Work Sans">40%</text>
        <text transform="translate(633.31 1488.33)" style="font-size: 14px;fill: #fff;font-family: Work Sans">60%</text>
        <line x1="864" y1="1558.33" x2="864" y2="1505.72" style="fill: none;stroke: #fff" />
        <line x1="648" y1="1558.33" x2="648" y2="1505.72" style="fill: none;stroke: #fff" />
        <line x1="432" y1="1558.33" x2="432" y2="1505.72" style="fill: none;stroke: #fff" />
        <text transform="translate(849.32 1488.33)" style="font-size: 14px;fill: #fff;font-family: Work Sans">80%</text>
        <text transform="translate(37 1413.33)" style="isolation: isolate;font-size: 23px;fill: #fff;font-family: Work Sans">Percentuale di territorio raggiunto</text>
    </g>
    <g id="firenze_rail_stacked">
        <rect x="337.14" y="1531.01" width="741.71" height="27.32" style="fill: #2d2d2d" />
        <rect x="260.65" y="1531.01" width="76.49" height="27.32" style="fill: #282641" />
        <rect x="180.92" y="1531.01" width="79.73" height="27.32" style="fill: #5d2b87" />
        <rect x="113.93" y="1531.01" width="67" height="27.32" style="fill: #b0498c" />
        <rect x="60.09" y="1531.01" width="53.83" height="27.32" style="fill: #e66277" />
        <rect x="23.52" y="1531.01" width="36.57" height="27.32" style="fill: #f67d6f" />
        <rect x="7.23" y="1531.01" width="16.29" height="27.32" style="fill: #febd8b" />
        <rect x="1.4" y="1531.01" width="5.83" height="27.32" style="fill: #fedda6" />
        <rect y="1531.01" width="1.4" height="27.32" style="fill: #fcfdc6" />
    </g>
    <g id="axes">
        <text transform="translate(201.55 1488.33)" style="font-size: 14px;fill: #fff;font-family: Work Sans">20%</text>
        <line x1="216" y1="1558.33" x2="216" y2="1505.72" style="fill: none;stroke: #fff" />
        <text transform="translate(417.36 1488.33)" style="font-size: 14px;fill: #fff;font-family: Work Sans">40%</text>
        <text transform="translate(633.31 1488.33)" style="font-size: 14px;fill: #fff;font-family: Work Sans">60%</text>
        <line x1="864" y1="1558.33" x2="864" y2="1505.72" style="fill: none;stroke: #fff" />
        <line x1="648" y1="1558.33" x2="648" y2="1505.72" style="fill: none;stroke: #fff" />
        <line x1="432" y1="1558.33" x2="432" y2="1505.72" style="fill: none;stroke: #fff" />
        <text transform="translate(849.32 1488.33)" style="font-size: 14px;fill: #fff;font-family: Work Sans">80%</text>
        <text transform="translate(37 1413.33)" style="isolation: isolate;font-size: 23px;fill: #fff;font-family: Work Sans">Percentuale di territorio raggiunto</text>
    </g>
    <g id="milano_rail_stacked">
        <rect x="278.99" y="1531.01" width="799.86" height="27.32" style="fill: #2d2d2d" />
        <rect x="226.88" y="1531.01" width="52.11" height="27.32" style="fill: #282641" />
        <rect x="175.42" y="1531.01" width="51.46" height="27.32" style="fill: #5d2b87" />
        <rect x="119.21" y="1531.01" width="56.21" height="27.32" style="fill: #b0498c" />
        <rect x="67.97" y="1531.01" width="51.25" height="27.32" style="fill: #e66277" />
        <rect x="29.56" y="1531.01" width="38.41" height="27.32" style="fill: #f67d6f" />
        <rect x="7.66" y="1531.01" width="21.9" height="27.32" style="fill: #febd8b" />
        <rect x="0.86" y="1531.01" width="6.8" height="27.32" style="fill: #fedda6" />
        <rect y="1531.01" width="0.86" height="27.32" style="fill: #fcfdc6" />
    </g>
    <g id="axes">
        <text transform="translate(201.55 1488.33)" style="font-size: 14px;fill: #fff;font-family: Work Sans">20%</text>
        <line x1="216" y1="1558.33" x2="216" y2="1505.72" style="fill: none;stroke: #fff" />
        <text transform="translate(417.36 1488.33)" style="font-size: 14px;fill: #fff;font-family: Work Sans">40%</text>
        <text transform="translate(633.31 1488.33)" style="font-size: 14px;fill: #fff;font-family: Work Sans">60%</text>
        <line x1="864" y1="1558.33" x2="864" y2="1505.72" style="fill: none;stroke: #fff" />
        <line x1="648" y1="1558.33" x2="648" y2="1505.72" style="fill: none;stroke: #fff" />
        <line x1="432" y1="1558.33" x2="432" y2="1505.72" style="fill: none;stroke: #fff" />
        <text transform="translate(849.32 1488.33)" style="font-size: 14px;fill: #fff;font-family: Work Sans">80%</text>
        <text transform="translate(37 1413.33)" style="isolation: isolate;font-size: 23px;fill: #fff;font-family: Work Sans">Percentuale di territorio raggiunto</text>
    </g>
    <g id="napoli_rail_stacked">
        <rect x="96.77" y="1531.01" width="982.08" height="27.32" style="fill: #2d2d2d" />
        <rect x="70.45" y="1531.01" width="26.32" height="27.32" style="fill: #282641" />
        <rect x="48.33" y="1531.01" width="22.12" height="27.32" style="fill: #5d2b87" />
        <rect x="28.81" y="1531.01" width="19.53" height="27.32" style="fill: #b0498c" />
        <rect x="14.78" y="1531.01" width="14.03" height="27.32" style="fill: #e66277" />
        <rect x="7.44" y="1531.01" width="7.34" height="27.32" style="fill: #f67d6f" />
        <rect x="3.78" y="1531.01" width="3.67" height="27.32" style="fill: #febd8b" />
        <rect x="0.86" y="1531.01" width="2.91" height="27.32" style="fill: #fedda6" />
        <rect y="1531.01" width="0.86" height="27.32" style="fill: #fcfdc6" />
    </g>
    <g id="axes">
        <text transform="translate(201.55 1488.33)" style="font-size: 14px;fill: #fff;font-family: Work Sans">20%</text>
        <line x1="216" y1="1558.33" x2="216" y2="1505.72" style="fill: none;stroke: #fff" />
        <text transform="translate(417.36 1488.33)" style="font-size: 14px;fill: #fff;font-family: Work Sans">40%</text>
        <text transform="translate(633.31 1488.33)" style="font-size: 14px;fill: #fff;font-family: Work Sans">60%</text>
        <line x1="864" y1="1558.33" x2="864" y2="1505.72" style="fill: none;stroke: #fff" />
        <line x1="648" y1="1558.33" x2="648" y2="1505.72" style="fill: none;stroke: #fff" />
        <line x1="432" y1="1558.33" x2="432" y2="1505.72" style="fill: none;stroke: #fff" />
        <text transform="translate(849.32 1488.33)" style="font-size: 14px;fill: #fff;font-family: Work Sans">80%</text>
        <text transform="translate(37 1413.33)" style="isolation: isolate;font-size: 23px;fill: #fff;font-family: Work Sans">Percentuale di territorio raggiunto</text>
    </g>
    <g id="palermo_rail_stacked">
        <rect x="43.26" y="1531.01" width="1035.59" height="27.32" style="fill: #2d2d2d" />
        <rect x="33.12" y="1531.01" width="10.14" height="27.32" style="fill: #282641" />
        <rect x="22.66" y="1531.01" width="10.46" height="27.32" style="fill: #5d2b87" />
        <rect x="14.03" y="1531.01" width="8.63" height="27.32" style="fill: #b0498c" />
        <rect x="8.09" y="1531.01" width="5.93" height="27.32" style="fill: #e66277" />
        <rect x="4.21" y="1531.01" width="3.88" height="27.32" style="fill: #f67d6f" />
        <rect x="1.83" y="1531.01" width="2.37" height="27.32" style="fill: #febd8b" />
        <rect x="0.54" y="1531.01" width="1.29" height="27.32" style="fill: #fedda6" />
        <rect y="1531.01" width="0.54" height="27.32" style="fill: #fcfdc6" />
    </g>
    <g id="axes">
        <text transform="translate(201.55 1488.33)" style="font-size: 14px;fill: #fff;font-family: Work Sans">20%</text>
        <line x1="216" y1="1558.33" x2="216" y2="1505.72" style="fill: none;stroke: #fff" />
        <text transform="translate(417.36 1488.33)" style="font-size: 14px;fill: #fff;font-family: Work Sans">40%</text>
        <text transform="translate(633.31 1488.33)" style="font-size: 14px;fill: #fff;font-family: Work Sans">60%</text>
        <line x1="864" y1="1558.33" x2="864" y2="1505.72" style="fill: none;stroke: #fff" />
        <line x1="648" y1="1558.33" x2="648" y2="1505.72" style="fill: none;stroke: #fff" />
        <line x1="432" y1="1558.33" x2="432" y2="1505.72" style="fill: none;stroke: #fff" />
        <text transform="translate(849.32 1488.33)" style="font-size: 14px;fill: #fff;font-family: Work Sans">80%</text>
        <text transform="translate(37 1413.33)" style="isolation: isolate;font-size: 23px;fill: #fff;font-family: Work Sans">Percentuale di territorio raggiunto</text>
    </g>
    <g id="pescara_rail_stacked">
        <rect x="98.93" y="1531.01" width="979.92" height="27.32" style="fill: #2d2d2d" />
        <rect x="73.47" y="1531.01" width="25.46" height="27.32" style="fill: #282641" />
        <rect x="50.17" y="1531.01" width="23.3" height="27.32" style="fill: #5d2b87" />
        <rect x="31.39" y="1531.01" width="18.77" height="27.32" style="fill: #b0498c" />
        <rect x="18.88" y="1531.01" width="12.51" height="27.32" style="fill: #e66277" />
        <rect x="9.71" y="1531.01" width="9.17" height="27.32" style="fill: #f67d6f" />
        <rect x="3.56" y="1531.01" width="6.15" height="27.32" style="fill: #febd8b" />
        <rect x="0.65" y="1531.01" width="2.91" height="27.32" style="fill: #fedda6" />
        <rect y="1531.01" width="0.65" height="27.32" style="fill: #fcfdc6" />
    </g>
    <g id="axes">
        <text transform="translate(201.55 1488.33)" style="font-size: 14px;fill: #fff;font-family: Work Sans">20%</text>
        <line x1="216" y1="1558.33" x2="216" y2="1505.72" style="fill: none;stroke: #fff" />
        <text transform="translate(417.36 1488.33)" style="font-size: 14px;fill: #fff;font-family: Work Sans">40%</text>
        <text transform="translate(633.31 1488.33)" style="font-size: 14px;fill: #fff;font-family: Work Sans">60%</text>
        <line x1="864" y1="1558.33" x2="864" y2="1505.72" style="fill: none;stroke: #fff" />
        <line x1="648" y1="1558.33" x2="648" y2="1505.72" style="fill: none;stroke: #fff" />
        <line x1="432" y1="1558.33" x2="432" y2="1505.72" style="fill: none;stroke: #fff" />
        <text transform="translate(849.32 1488.33)" style="font-size: 14px;fill: #fff;font-family: Work Sans">80%</text>
        <text transform="translate(37 1413.33)" style="isolation: isolate;font-size: 23px;fill: #fff;font-family: Work Sans">Percentuale di territorio raggiunto</text>
    </g>
    <g id="reggio_rail_stacked">
        <rect x="30.96" y="1531.01" width="1047.89" height="27.32" style="fill: #2d2d2d" />
        <rect x="21.47" y="1531.01" width="9.49" height="27.32" style="fill: #282641" />
        <rect x="14.46" y="1531.01" width="7.01" height="27.32" style="fill: #5d2b87" />
        <rect x="8.31" y="1531.01" width="6.15" height="27.32" style="fill: #b0498c" />
        <rect x="3.99" y="1531.01" width="4.32" height="27.32" style="fill: #e66277" />
        <rect x="1.73" y="1531.01" width="2.27" height="27.32" style="fill: #f67d6f" />
        <rect x="0.65" y="1531.01" width="1.08" height="27.32" style="fill: #febd8b" />
        <rect x="0.22" y="1531.01" width="0.43" height="27.32" style="fill: #fedda6" />
        <rect y="1531.01" width="0.22" height="27.32" style="fill: #fcfdc6" />
    </g>
    <g id="axes">
        <text transform="translate(201.55 1488.33)" style="font-size: 14px;fill: #fff;font-family: Work Sans">20%</text>
        <line x1="216" y1="1558.33" x2="216" y2="1505.72" style="fill: none;stroke: #fff" />
        <text transform="translate(417.36 1488.33)" style="font-size: 14px;fill: #fff;font-family: Work Sans">40%</text>
        <text transform="translate(633.31 1488.33)" style="font-size: 14px;fill: #fff;font-family: Work Sans">60%</text>
        <line x1="864" y1="1558.33" x2="864" y2="1505.72" style="fill: none;stroke: #fff" />
        <line x1="648" y1="1558.33" x2="648" y2="1505.72" style="fill: none;stroke: #fff" />
        <line x1="432" y1="1558.33" x2="432" y2="1505.72" style="fill: none;stroke: #fff" />
        <text transform="translate(849.32 1488.33)" style="font-size: 14px;fill: #fff;font-family: Work Sans">80%</text>
        <text transform="translate(37 1413.33)" style="isolation: isolate;font-size: 23px;fill: #fff;font-family: Work Sans">Percentuale di territorio raggiunto</text>
    </g>
    <g id="roma_rail_stacked">
        <rect x="251.37" y="1531.01" width="827.48" height="27.32" style="fill: #2d2d2d" />
        <rect x="183.73" y="1531.01" width="67.64" height="27.32" style="fill: #282641" />
        <rect x="119.11" y="1531.01" width="64.62" height="27.32" style="fill: #5d2b87" />
        <rect x="68.08" y="1531.01" width="51.03" height="27.32" style="fill: #b0498c" />
        <rect x="37.22" y="1531.01" width="30.86" height="27.32" style="fill: #e66277" />
        <rect x="19.42" y="1531.01" width="17.8" height="27.32" style="fill: #f67d6f" />
        <rect x="8.95" y="1531.01" width="10.46" height="27.32" style="fill: #febd8b" />
        <rect x="2.37" y="1531.01" width="6.58" height="27.32" style="fill: #fedda6" />
        <rect y="1531.01" width="2.37" height="27.32" style="fill: #fcfdc6" />
    </g>
    <g id="axes">
        <text transform="translate(201.55 1488.33)" style="font-size: 14px;fill: #fff;font-family: Work Sans">20%</text>
        <line x1="216" y1="1558.33" x2="216" y2="1505.72" style="fill: none;stroke: #fff" />
        <text transform="translate(417.36 1488.33)" style="font-size: 14px;fill: #fff;font-family: Work Sans">40%</text>
        <text transform="translate(633.31 1488.33)" style="font-size: 14px;fill: #fff;font-family: Work Sans">60%</text>
        <line x1="864" y1="1558.33" x2="864" y2="1505.72" style="fill: none;stroke: #fff" />
        <line x1="648" y1="1558.33" x2="648" y2="1505.72" style="fill: none;stroke: #fff" />
        <line x1="432" y1="1558.33" x2="432" y2="1505.72" style="fill: none;stroke: #fff" />
        <text transform="translate(849.32 1488.33)" style="font-size: 14px;fill: #fff;font-family: Work Sans">80%</text>
        <text transform="translate(37 1413.33)" style="isolation: isolate;font-size: 23px;fill: #fff;font-family: Work Sans">Percentuale di territorio raggiunto</text>
    </g>
    <g id="torino_rail_stacked">
        <rect x="182.97" y="1531.01" width="895.88" height="27.32" style="fill: #2d2d2d" />
        <rect x="135.72" y="1531.01" width="47.25" height="27.32" style="fill: #282641" />
        <rect x="98.61" y="1531.01" width="37.11" height="27.32" style="fill: #5d2b87" />
        <rect x="67.1" y="1531.01" width="31.5" height="27.32" style="fill: #b0498c" />
        <rect x="42.61" y="1531.01" width="24.49" height="27.32" style="fill: #e66277" />
        <rect x="22.01" y="1531.01" width="20.61" height="27.32" style="fill: #f67d6f" />
        <rect x="8.63" y="1531.01" width="13.38" height="27.32" style="fill: #febd8b" />
        <rect x="1.62" y="1531.01" width="7.01" height="27.32" style="fill: #fedda6" />
        <rect y="1531.01" width="1.62" height="27.32" style="fill: #fcfdc6" />
    </g>
    <g id="axes">
        <text transform="translate(201.55 1488.33)" style="font-size: 14px;fill: #fff;font-family: Work Sans">20%</text>
        <line x1="216" y1="1558.33" x2="216" y2="1505.72" style="fill: none;stroke: #fff" />
        <text transform="translate(417.36 1488.33)" style="font-size: 14px;fill: #fff;font-family: Work Sans">40%</text>
        <text transform="translate(633.31 1488.33)" style="font-size: 14px;fill: #fff;font-family: Work Sans">60%</text>
        <line x1="864" y1="1558.33" x2="864" y2="1505.72" style="fill: none;stroke: #fff" />
        <line x1="648" y1="1558.33" x2="648" y2="1505.72" style="fill: none;stroke: #fff" />
        <line x1="432" y1="1558.33" x2="432" y2="1505.72" style="fill: none;stroke: #fff" />
        <text transform="translate(849.32 1488.33)" style="font-size: 14px;fill: #fff;font-family: Work Sans">80%</text>
        <text transform="translate(37 1413.33)" style="isolation: isolate;font-size: 23px;fill: #fff;font-family: Work Sans">Percentuale di territorio raggiunto</text>
    </g>
    <g id="venezia_rail_stacked">
        <rect x="215.77" y="1531.01" width="863.08" height="27.32" style="fill: #2d2d2d" />
        <rect x="168.08" y="1531.01" width="47.69" height="27.32" style="fill: #282641" />
        <rect x="126.55" y="1531.01" width="41.54" height="27.32" style="fill: #5d2b87" />
        <rect x="86.42" y="1531.01" width="40.13" height="27.32" style="fill: #b0498c" />
        <rect x="51.14" y="1531.01" width="35.28" height="27.32" style="fill: #e66277" />
        <rect x="24.71" y="1531.01" width="26.43" height="27.32" style="fill: #f67d6f" />
        <rect x="8.52" y="1531.01" width="16.18" height="27.32" style="fill: #febd8b" />
        <rect x="1.4" y="1531.01" width="7.12" height="27.32" style="fill: #fedda6" />
        <rect y="1531.01" width="1.4" height="27.32" style="fill: #fcfdc6" />
    </g>
    <g id="axes">
        <text transform="translate(201.55 1488.33)" style="font-size: 14px;fill: #fff;font-family: Work Sans">20%</text>
        <line x1="216" y1="1558.33" x2="216" y2="1505.72" style="fill: none;stroke: #fff" />
        <text transform="translate(417.36 1488.33)" style="font-size: 14px;fill: #fff;font-family: Work Sans">40%</text>
        <text transform="translate(633.31 1488.33)" style="font-size: 14px;fill: #fff;font-family: Work Sans">60%</text>
        <line x1="864" y1="1558.33" x2="864" y2="1505.72" style="fill: none;stroke: #fff" />
        <line x1="648" y1="1558.33" x2="648" y2="1505.72" style="fill: none;stroke: #fff" />
        <line x1="432" y1="1558.33" x2="432" y2="1505.72" style="fill: none;stroke: #fff" />
        <text transform="translate(849.32 1488.33)" style="font-size: 14px;fill: #fff;font-family: Work Sans">80%</text>
        <text transform="translate(37 1413.33)" style="isolation: isolate;font-size: 23px;fill: #fff;font-family: Work Sans">Percentuale di territorio raggiunto</text>
    </g>
</svg>