<svg id="Layer_1" data-name="Layer 1" xmlns="http://www.w3.org/2000/svg" viewBox="0 0 1080 1920"><title>layer-names</title><g id="palermo"><rect x="608.72" y="1281.26" width="5.11" height="5.11" rx="2.55" ry="2.55" style="fill:#fff"/><text transform="translate(572.97 1269.93)" style="font-size:19px;fill:#fff;font-family:WorkSans-Regular, Work Sans">Palermo</text></g><g id="bari"><rect x="895.87" y="918.85" width="5.11" height="5.11" rx="2.55" ry="2.55" style="fill:#fff"/><text transform="translate(880.44 907.51)" style="font-size:19px;fill:#fff;font-family:WorkSans-Regular, Work Sans">Bari</text></g><g id="bologna"><rect x="407.99" y="556.24" width="5.11" height="5.11" rx="2.55" ry="2.55" style="fill:#fff"/><text transform="translate(373.62 544.94)" style="font-size:19px;fill:#fff;font-family:WorkSans-Regular, Work Sans">Bologn<tspan x="63.52" y="0" style="letter-spacing:-0.023026315789473683em">a</tspan></text></g><g id="torino"><rect x="107.29" y="497.26" width="5.11" height="5.11" rx="2.55" ry="2.55" style="fill:#fff"/><text transform="translate(91.86 485.93)" style="font-size:19px;fill:#fff;font-family:WorkSans-Regular, Work Sans"><tspan style="letter-spacing:-0.10999177631578948em">T</tspan><tspan x="9.39" y="0">orino</tspan></text></g><g id="cagliari"><rect x="226.86" y="1161.7" width="5.11" height="5.11" rx="2.55" ry="2.55" style="fill:#fff"/><text transform="translate(195.09 1150.37)" style="font-size:19px;fill:#fff;font-family:WorkSans-Regular, Work Sans">Cagliari</text></g><g id="firenze"><rect x="401.81" y="639.97" width="5.11" height="5.11" rx="2.55" ry="2.55" style="fill:#fff"/><text transform="translate(370.41 628.63)" style="font-size:19px;fill:#fff;font-family:WorkSans-Regular, Work Sans">Fi<tspan x="16.64" y="0" style="letter-spacing:-0.015984786184210526em">r</tspan><tspan x="24.09" y="0">en</tspan><tspan x="46.89" y="0" style="letter-spacing:-0.008018092105263159em">z</tspan><tspan x="56.88" y="0">e</tspan></text></g><g id="milano"><rect x="232.79" y="447.84" width="5.11" height="5.11" rx="2.55" ry="2.55" style="fill:#fff"/><text transform="translate(201.38 436.51)" style="font-size:19px;fill:#fff;font-family:WorkSans-Regular, Work Sans">Milano</text></g><g id="napoli"><rect x="676.7" y="961.79" width="5.11" height="5.11" rx="2.55" ry="2.55" style="fill:#fff"/><text transform="translate(649.77 950.45)" style="font-size:19px;fill:#fff;font-family:WorkSans-Regular, Work Sans"><tspan style="letter-spacing:-0.0060135690789473685em">N</tspan><tspan x="13.83" y="0">apoli</tspan></text></g><g id="pescara"><rect x="659.03" y="780.95" width="5.11" height="5.11" rx="2.55" ry="2.55" style="fill:#fff"/><text transform="translate(632.09 769.62)" style="font-size:19px;fill:#fff;font-family:WorkSans-Regular, Work Sans"><tspan style="letter-spacing:-0.008994654605263159em">P</tspan><tspan x="11.42" y="0">esca</tspan><tspan x="53.94" y="0" style="letter-spacing:-0.013980263157894737em">r</tspan><tspan x="61.43" y="0" style="letter-spacing:-0.023026315789473683em">a</tspan></text></g><g id="reggio"><rect x="819.62" y="1271.73" width="5.11" height="5.11" rx="2.55" ry="2.55" style="fill:#fff"/><text transform="translate(750.8 1260.39)" style="font-size:19px;fill:#fff;font-family:WorkSans-Regular, Work Sans"><tspan style="letter-spacing:-0.017012746710526317em">R</tspan><tspan x="12.31" y="0">eggio Calabri</tspan><tspan x="132.43" y="0" style="letter-spacing:-0.022974917763157895em">a</tspan></text></g><g id="roma"><rect x="518.88" y="850.56" width="5.11" height="5.11" rx="2.55" ry="2.55" style="fill:#fff"/><text transform="translate(495.29 839.23)" style="font-size:19px;fill:#fff;font-family:WorkSans-Regular, Work Sans"><tspan style="letter-spacing:-0.017012746710526317em">R</tspan><tspan x="12.31" y="0">om</tspan><tspan x="41.97" y="0" style="letter-spacing:-0.023026315789473683em">a</tspan></text></g><g id="venezia"><rect x="481.82" y="433.71" width="5.11" height="5.11" rx="2.55" ry="2.55" style="fill:#fff"/><text transform="translate(448.97 422.38)" style="font-size:19px;fill:#fff;font-family:WorkSans-Regular, Work Sans;letter-spacing:-0.04594983552631579em">V<tspan x="11.44" y="0" style="letter-spacing:-0.00005139802631578947em">enezi</tspan><tspan x="60.48" y="0" style="letter-spacing:-0.023026315789473683em">a</tspan></text></g><g id="roma-2" data-name="roma"><rect x="518.88" y="850.56" width="5.11" height="5.11" rx="2.55" ry="2.55" style="fill:#fff"/><text transform="translate(495.29 839.23)" style="font-size:19px;fill:#fff;font-family:WorkSans-Regular, Work Sans"><tspan style="letter-spacing:-0.017012746710526317em">R</tspan><tspan x="12.31" y="0">om</tspan><tspan x="41.97" y="0" style="letter-spacing:-0.023026315789473683em">a</tspan></text></g></svg>