<svg id="Layer_1" data-name="Layer 1" xmlns="http://www.w3.org/2000/svg" viewBox="0 0 1080 1920"><title>layer-cities</title><g id="bari"><text transform="translate(157.76 945.34)" style="font-size:36px;font-family:Work Sans">Bari</text><circle cx="127.58" cy="932.47" r="18.45" style="fill:gray;stroke:#000;stroke-miterlimit:10;stroke-width:2px"/></g><g id="bologna"><text transform="translate(157.76 996.44)" style="font-size:36px;font-family:Work Sans">Bologn<tspan x="120.35" y="0">a</tspan></text><circle cx="127.58" cy="983.57" r="18.45" style="fill:gray;stroke:#000;stroke-miterlimit:10;stroke-width:2px"/></g><g id="cagliari"><text transform="translate(157.76 1047.54)" style="font-size:36px;font-family:Work Sans">Cagliari</text><circle cx="127.58" cy="1034.67" r="18.45" style="fill:gray;stroke:#000;stroke-miterlimit:10;stroke-width:2px"/></g><g id="firenze"><text transform="translate(157.76 1098.64)" style="font-size:36px;font-family:Work Sans">Fi<tspan x="31.54" y="0">r</tspan><tspan x="45.65" y="0">en</tspan><tspan x="88.85" y="0">z</tspan><tspan x="107.78" y="0">e</tspan></text><circle cx="127.58" cy="1085.77" r="18.45" style="fill:gray;stroke:#000;stroke-miterlimit:10;stroke-width:2px"/></g><g id="milano"><text transform="translate(157.76 1149.75)" style="font-size:36px;font-family:Work Sans">Milano</text><circle cx="127.58" cy="1136.87" r="18.45" style="fill:gray;stroke:#000;stroke-miterlimit:10;stroke-width:2px"/></g><g id="napoli"><text transform="translate(157.76 1200.85)" style="font-size:36px;font-family:Work Sans">N<tspan x="26.21" y="0">apoli</tspan></text><circle cx="127.58" cy="1187.97" r="18.45" style="fill:gray;stroke:#000;stroke-miterlimit:10;stroke-width:2px"/></g><g id="palermo"><text transform="translate(157.76 1251.95)" style="font-size:36px;font-family:Work Sans">Palermo</text><circle cx="127.58" cy="1239.08" r="18.45" style="fill:gray;stroke:#000;stroke-miterlimit:10;stroke-width:2px"/></g><g id="pescara"><text transform="translate(157.76 1303.05)" style="font-size:36px;font-family:Work Sans">P<tspan x="21.64" y="0">esca</tspan><tspan x="102.2" y="0">r</tspan><tspan x="116.39" y="0">a</tspan></text><circle cx="127.58" cy="1290.18" r="18.45" style="fill:gray;stroke:#000;stroke-miterlimit:10;stroke-width:2px"/></g><g id="reggio"><text transform="translate(157.76 1354.16)" style="font-size:36px;font-family:Work Sans">R<tspan x="23.33" y="0">eggio Calabri</tspan><tspan x="250.92" y="0">a</tspan></text><circle cx="127.58" cy="1341.28" r="18.45" style="fill:gray;stroke:#000;stroke-miterlimit:10;stroke-width:2px"/></g><g id="roma"><text transform="translate(157.76 1405.26)" style="font-size:36px;font-family:Work Sans">R<tspan x="23.33" y="0">om</tspan><tspan x="79.52" y="0">a</tspan></text><circle cx="127.58" cy="1392.38" r="18.45" style="fill:gray;stroke:#000;stroke-miterlimit:10;stroke-width:2px"/></g><g id="torino"><text transform="translate(157.76 1456.36)" style="font-size:36px;font-family:Work Sans"><tspan style="letter-spacing:-3px">T</tspan><tspan x="17.78" y="0">orino</tspan></text><circle cx="127.58" cy="1443.49" r="18.45" style="fill:gray;stroke:#000;stroke-miterlimit:10;stroke-width:2px"/></g><g id="venezia"><text transform="translate(157.76 1507.46)" style="font-size:36px;font-family:Work Sans"><tspan style="letter-spacing:-1px">V</tspan><tspan x="21.67" y="0">enezi</tspan><tspan x="114.59" y="0">a</tspan></text><circle cx="127.58" cy="1494.59" r="18.45" style="fill:gray;stroke:#000;stroke-miterlimit:10;stroke-width:2px"/></g></svg>