<svg id="Layer_1" data-name="Layer 1" xmlns="http://www.w3.org/2000/svg" viewBox="0 0 1080 1920"><title>layer-names</title><g id="palermo"><rect x="569.71" y="1253.15" width="83.13" height="37.16" style="fill:#fff;opacity:0"/><circle cx="611.28" cy="1283.82" r="2.5" style="fill:#fff"/><text transform="translate(572.97 1269.93)" style="font-size:19px;fill:#fff;font-family:WorkSans-Regular, Work Sans">Palermo</text></g><g id="bari"><rect x="872.65" y="891.16" width="51.56" height="37.16" style="fill:#fff;opacity:0"/><circle cx="898.43" cy="921.4" r="2.5" style="fill:#fff"/><text transform="translate(880.44 907.51)" style="font-size:19px;fill:#fff;font-family:WorkSans-Regular, Work Sans">Bari</text></g><g id="bologna"><rect x="373.48" y="526.36" width="74.12" height="37.16" style="fill:#fff;opacity:0"/><circle cx="410.54" cy="558.79" r="2.5" style="fill:#fff"/><text transform="translate(373.62 544.94)" style="font-size:19px;fill:#fff;font-family:WorkSans-Regular, Work Sans">Bologn<tspan x="63.52" y="0" style="letter-spacing:-0.023026315789473683em">a</tspan></text></g><g id="torino"><rect x="90.91" y="469.67" width="60.88" height="37.16" style="fill:#fff;opacity:0"/><circle cx="109.84" cy="499.82" r="2.5" style="fill:#fff"/><text transform="translate(91.86 485.93)" style="font-size:19px;fill:#fff;font-family:WorkSans-Regular, Work Sans"><tspan style="letter-spacing:-0.10999177631578948em">T</tspan><tspan x="9.39" y="0">orino</tspan></text></g><g id="cagliari"><rect x="192.35" y="1131.78" width="74.12" height="37.16" style="fill:#fff;opacity:0"/><circle cx="229.41" cy="1164.26" r="2.5" style="fill:#fff"/><text transform="translate(195.09 1150.37)" style="font-size:19px;fill:#fff;font-family:WorkSans-Regular, Work Sans">Cagliari</text></g><g id="firenze"><rect x="367.3" y="612.44" width="74.12" height="37.16" style="fill:#fff;opacity:0"/><circle cx="404.37" cy="642.52" r="2.5" style="fill:#fff"/><text transform="translate(370.41 628.63)" style="font-size:19px;fill:#fff;font-family:WorkSans-Regular, Work Sans">Fi<tspan x="16.64" y="0" style="letter-spacing:-0.015984786184210526em">r</tspan><tspan x="24.09" y="0">en</tspan><tspan x="46.89" y="0" style="letter-spacing:-0.008018092105263159em">z</tspan><tspan x="56.88" y="0">e</tspan></text></g><g id="milano"><rect x="198.28" y="420.24" width="68.28" height="37.16" style="fill:#fff;opacity:0"/><circle cx="235.34" cy="450.4" r="2.5" style="fill:#fff"/><text transform="translate(201.38 436.51)" style="font-size:19px;fill:#fff;font-family:WorkSans-Regular, Work Sans">Milano</text></g><g id="napoli"><rect x="644.75" y="931.87" width="74.12" height="37.16" style="fill:#fff;opacity:0"/><circle cx="679.25" cy="964.34" r="2.5" style="fill:#fff"/><text transform="translate(649.77 950.45)" style="font-size:19px;fill:#fff;font-family:WorkSans-Regular, Work Sans"><tspan style="letter-spacing:-0.0060135690789473685em">N</tspan><tspan x="13.83" y="0">apoli</tspan></text></g><g id="pescara"><rect x="632.09" y="753.76" width="74.12" height="37.16" style="fill:#fff;opacity:0"/><circle cx="661.58" cy="783.51" r="2.5" style="fill:#fff"/><text transform="translate(632.09 769.62)" style="font-size:19px;fill:#fff;font-family:WorkSans-Regular, Work Sans"><tspan style="letter-spacing:-0.008994654605263159em">P</tspan><tspan x="11.42" y="0">esca</tspan><tspan x="53.94" y="0" style="letter-spacing:-0.013980263157894737em">r</tspan><tspan x="61.43" y="0" style="letter-spacing:-0.023026315789473683em">a</tspan></text></g><g id="reggio"><rect x="748.46" y="1241.81" width="147.41" height="37.16" style="fill:#fff;opacity:0"/><circle cx="822.17" cy="1274.28" r="2.5" style="fill:#fff"/><text transform="translate(750.8 1260.39)" style="font-size:19px;fill:#fff;font-family:WorkSans-Regular, Work Sans"><tspan style="letter-spacing:-0.017012746710526317em">R</tspan><tspan x="12.31" y="0">eggio Calabri</tspan><tspan x="132.43" y="0" style="letter-spacing:-0.022974917763157895em">a</tspan></text></g><g id="roma"><rect x="484.37" y="823.55" width="74.12" height="37.16" style="fill:#fff;opacity:0"/><circle cx="521.43" cy="853.12" r="2.5" style="fill:#fff"/><text transform="translate(495.29 839.23)" style="font-size:19px;fill:#fff;font-family:WorkSans-Regular, Work Sans"><tspan style="letter-spacing:-0.017012746710526317em">R</tspan><tspan x="12.31" y="0">om</tspan><tspan x="41.97" y="0" style="letter-spacing:-0.023026315789473683em">a</tspan></text></g><g id="venezia"><rect x="447.31" y="403.79" width="74.12" height="37.16" style="fill:#fff;opacity:0"/><circle cx="484.37" cy="436.26" r="2.5" style="fill:#fff"/><text transform="translate(448.97 422.38)" style="font-size:19px;fill:#fff;font-family:WorkSans-Regular, Work Sans;letter-spacing:-0.04594983552631579em">V<tspan x="11.44" y="0" style="letter-spacing:-0.00005139802631578947em">enezi</tspan><tspan x="60.48" y="0" style="letter-spacing:-0.023026315789473683em">a</tspan></text></g></svg>